<?xml version="1.0" encoding="utf-8"?>
<svg version="1.1" xmlns="http://www.w3.org/2000/svg" xmlns:xlink="http://www.w3.org/1999/xlink" x="0px" y="0px" viewBox="0 0 324 468" style="enable-background: new 0 0 324 468;" xml:space="preserve">
	<!-- Copyright 2021 Patrick Weber.  All rights reserved. -->
	<style type="text/css">
		.st0 {
			opacity:0.35;
			fill:#231F20;
		}
		.st1 {
			fill:#123466;
		}
		.st2 {
			fill:#980F08;
		}
		.st3 {
			fill:none;
			stroke:#000000;
			stroke-width:8;
			stroke-miterlimit:10;
		}
		.st4 {
			fill:#482407;
		}
		.st5 {
			fill:#F5CA98;
			stroke:#000000;
			stroke-width:13;
			stroke-miterlimit:10;
		}
		.st6 {
			fill:#F5CB99;
			stroke:#000000;
			stroke-width:8;
			stroke-miterlimit:10;
		}
		.st7 {
			fill:none;
		}
		.st8 {
			fill:none;
			stroke:#000000;
			stroke-width:9.99;
			stroke-miterlimit:10;
		}
		.st9 {
			fill:none;
			stroke:#000000;
			stroke-width:10;
			stroke-miterlimit:10;
		}
	</style>
	<g id="Shadow">
		<ellipse class="st0" cx="162" cy="442.8" rx="144" ry="14.4" />
	</g>
	<g id="Body">
		<g>
			<ellipse class="st1" cx="162.09" cy="370.8" rx="77.4" ry="72" />
			<path class="st2" d="M161.91,298.8c-42.75,0-77.4,32.24-77.4,72c0,5.58,0.71,11.01,2,16.23c22.75,7.07,48.34,11.05,75.4,11.05 c27.06,0,52.65-3.98,75.4-11.05c1.29-5.22,2-10.65,2-16.23C239.31,331.04,204.66,298.8,161.91,298.8z" />
			<ellipse class="st3" cx="162.09" cy="370.8" rx="77.4" ry="72" />
		</g>
	</g>
	<g id="Hair">
		<g>
			<g>
				<g>
					<path class="st4" d="M53.91,238.8c-2.04-15.67-6.64-30.1-14-43.96c-4.98-9.38-12.87-21.21-17.76-28.33 c1.88-0.5,3.98-0.87,6.04-0.87c0.32,0,0.65,0.01,0.97,0.03c5.45,0.35,8.12,1.35,8.15,1.36l4.11,1.72l2.91-3.24 c1.7-1.81,4.9-7.47,7.27-25.02c1.73-12.8,0.85-25.25-0.04-32.72c2.53,0.4,5.63,1.32,9.04,3.22c5.23,2.92,7.21,5.04,7.79,5.77 l1.36,10.08l8.33-7.53c0.9-0.67,9.15-7.17,21.52-28.92c6.44-11.32,8.99-22.19,10.01-29.21c2.12,0.93,4.65,2.33,7.37,4.42 c6.02,4.61,9.02,11.47,9.05,11.54l3.09,7.18l6.45-4.67c1.54-1.12,6.3-5.72,17.2-24.09c3.81-6.43,6.9-13.74,9.28-20.44 c2.35,6.7,5.41,14.01,9.23,20.44c10.9,18.37,15.65,22.97,17.19,24.09l6.49,4.73l3.05-7.26c0.02-0.05,3.02-6.91,9.03-11.52 c2.73-2.09,5.26-3.49,7.38-4.42c1.01,7.01,3.57,17.89,10.01,29.21c12.37,21.75,20.62,28.25,21.52,28.92l8.6,6.41l1.09-8.97 c0.59-0.74,2.58-2.85,7.79-5.77c3.4-1.9,6.51-2.82,9.04-3.22c-0.89,7.47-1.77,19.92-0.04,32.73 c2.37,17.55,5.57,23.21,7.27,25.02l3,3.21l4.11-1.72c0,0,0,0,0,0c0.01,0,2.68-0.98,8.06-1.33c0.32-0.02,0.64-0.03,0.97-0.03 c2.06,0,4.16,0.38,6.04,0.87c-4.9,7.12-12.79,18.95-17.76,28.33c-7.36,13.86-11.96,28.29-14,43.96H53.91z" />
					<path d="M162.01,51.35c1.19,2.46,2.46,4.87,3.83,7.18c5.8,9.77,13.77,22.2,18.85,25.9l13.12,9.8l5.94-14.82 c0.23-0.49,2.38-5.03,6.28-8.41c1.65,6.55,4.39,14.33,8.9,22.26c12.71,22.34,21.53,29.57,23.17,30.79l13.9,10.35l5.01-14.47 c0.62-0.58,1.94-1.66,4.39-3.12c-0.39,7.09-0.37,15.69,0.81,24.44c2,14.82,4.89,24.07,8.82,28.27l5.7,7.19l8.36-4.14 c0.25-0.07,0.74-0.2,1.48-0.35c-4.16,6.33-8.72,13.62-12.04,19.88c-6.87,12.93-11.43,26.33-13.85,40.69H59.31 c-2.42-14.36-6.98-27.76-13.85-40.69c-3.32-6.26-7.89-13.55-12.04-19.88c0.73,0.14,1.22,0.27,1.47,0.35l7.64,3.81l6.43-6.86 c3.93-4.2,6.82-13.45,8.82-28.27c1.18-8.76,1.2-17.35,0.81-24.45c2.45,1.46,3.78,2.54,4.39,3.12L68,134.4l13.9-10.35 c1.64-1.22,10.46-8.44,23.17-30.79c4.52-7.94,7.25-15.71,8.9-22.27c3.91,3.38,6.06,7.92,6.28,8.41l5.87,14.63l13.2-9.61 c5.08-3.7,13.05-16.13,18.85-25.9C159.54,56.22,160.82,53.81,162.01,51.35 M162.09,12.35c0,0-4.86,23.56-14.75,40.23 C135.9,71.87,131.8,74.86,131.8,74.86s-3.47-8.25-10.93-13.96c-9.11-6.99-16.83-7.54-16.83-7.54s0.12,16.52-9.9,34.14 c-12.1,21.28-19.87,27.06-19.87,27.06s-1.24-3.57-10.54-8.77c-6.42-3.59-12.1-4.31-15.61-4.31c-2.35,0-3.73,0.32-3.73,0.32 s3.63,18.7,1.03,37.91c-2.47,18.32-5.71,21.78-5.71,21.78s-3.27-1.37-10.13-1.81c-0.46-0.03-0.92-0.04-1.38-0.04 c-7.85,0-15.54,4.03-15.54,4.03s14.33,19.99,21.72,33.9c5.63,10.6,12.01,25.99,13.94,47.23h227.41 c1.93-21.24,8.32-36.63,13.94-47.23c7.38-13.91,21.72-33.9,21.72-33.9s-7.7-4.03-15.54-4.03c-0.46,0-0.92,0.01-1.38,0.04 c-6.86,0.44-10.13,1.81-10.13,1.81s-3.24-3.46-5.71-21.78c-2.6-19.21,1.03-37.91,1.03-37.91s-1.38-0.32-3.73-0.32 c-3.52,0-9.19,0.72-15.61,4.31c-9.3,5.2-10.54,8.77-10.54,8.77s-7.76-5.78-19.87-27.06c-10.03-17.62-9.9-34.14-9.9-34.14 s-7.72,0.55-16.83,7.54c-7.46,5.71-10.93,13.96-10.93,13.96s-4.1-2.99-15.54-22.28C166.78,35.91,162.09,12.35,162.09,12.35 L162.09,12.35z" />
				</g>
			</g>
		</g>
	</g>
	<g id="Head">
		<ellipse class="st5" cx="162.09" cy="234" rx="108" ry="120.6" />
	</g>
	<g id="Arms">
		<circle class="st6" cx="79.2" cy="354.6" r="27" />
		<circle class="st6" cx="244.8" cy="354.6" r="27" />
	</g>
	<g id="Eyes">
		<g>
			<line class="st7" x1="162" y1="538.54" x2="162" y2="-41.04" />
		</g>
		<g>
			<circle cx="122.4" cy="244.8" r="11.88" />
			<circle cx="201.6" cy="244.8" r="11.88" />
		</g>
	</g>
	<g id="NoseBridge">
		<path class="st8" d="M161.64,227c0.26,0,0.72,0,0.72,0" />
	</g>
	<g id="Glasses">
		<g>
			<g>
				<g>
					<path class="st9" d="M109.88,280.4c-21.26,0-36.54-16.58-36.54-36.35c0-5.65,1.58-12.66,8.57-17.55 c7.33-5.13,23.51-6.56,31.05-6.56c12.09,0,20.02,0.68,26.52,4.58c5.79,3.47,9.68,8.1,9.68,22.99 C149.17,259.73,141.53,280.4,109.88,280.4z" />
				</g>
				<path class="st9" d="M162.09,227c-3.93,0-10.78,0.48-13.69,3.39" />
				<line class="st9" x1="54.09" y1="231.92" x2="75.67" y2="231.92" />
				<path class="st9" d="M83.66,225.36c-5.59,1.39-25.07,6.15-30.44,7.41" />
			</g>
		</g>
		<g>
			<g>
				<g>
					<path class="st9" d="M214.3,280.4c21.26,0,36.54-16.58,36.54-36.35c0-5.65-1.58-12.66-8.57-17.55 c-7.33-5.13-23.51-6.56-31.05-6.56c-12.09,0-20.02,0.68-26.52,4.58c-5.79,3.47-9.68,8.1-9.68,22.99 C175.02,259.73,182.65,280.4,214.3,280.4z" />
				</g>
				<path class="st9" d="M162.09,227c3.93,0,10.78,0.48,13.69,3.39" />
				<line class="st9" x1="270.09" y1="231.92" x2="248.51" y2="231.92" />
				<path class="st9" d="M240.52,225.36c5.59,1.39,25.07,6.15,30.44,7.41" />
			</g>
		</g>
	</g>
</svg>
