<?xml version="1.0" encoding="utf-8"?>
<svg version="1.1" id="Layer_1" xmlns="http://www.w3.org/2000/svg" xmlns:xlink="http://www.w3.org/1999/xlink" x="0px" y="0px" viewBox="0 0 423.19 68.8" style="enable-background: new 0 0 423.19 68.8;" xml:space="preserve">
	<!-- Copyright 2021 Patrick Weber.  All rights reserved. -->
	<style type="text/css">
		.st0 {
			fill: #980F08;
			stroke: #980F08;
			stroke-width: 2;
			stroke-miterlimit: 10;
		}
		.st1 {
			fill: #123466;
			stroke: #123466;
			stroke-width: 2;
			stroke-miterlimit: 10;
		}
	</style>
	<g>
		<!-- P --><path class="st0" d="M25.89,38.16c0-0.29,0.14-0.58,0.29-0.65c0.65,0.14,1.73,0.22,2.81,0.22c2.16,0,3.6-0.36,5.04-1.08 c3.31-1.87,4.39-5.18,4.39-9.29c0-6.62-3.31-11.45-11.52-11.45c-0.72,0-2.52,0.07-3.02,0.36c-0.22,0.14-0.5,0.5-0.58,1.01 c-0.07,1.66-0.14,5.4-0.14,17.07c0,8.21-0.07,13.68,0.07,17.35c0.22,2.59,0.65,3.17,2.66,3.67c1.08,0.29,2.59,0.43,4.32,0.65 c0.29,0.29,0.14,1.87-0.07,2.09c-2.09,0-7.13-0.22-9.94-0.22c-3.31,0-7.78,0.22-9.43,0.22c-0.29-0.29-0.29-1.8-0.07-2.02 c1.51-0.22,2.95-0.36,3.82-0.58c1.73-0.5,2.09-1.3,2.23-4.18c0.14-2.45,0.22-8.35,0.22-16.13c0-8.28,0.07-13.18-0.07-15.41 c-0.14-2.52-0.58-3.38-2.59-3.82c-0.94-0.22-2.09-0.43-3.53-0.58c-0.29-0.36-0.07-1.8,0.14-2.02c1.15,0,5.11,0.22,8.5,0.22 c4.32,0,7.42-0.14,11.67-0.14c2.45,0,6.77,0.5,9.58,2.74c2.38,1.87,4.46,4.97,4.46,9.72c0,6.62-3.89,10.73-7.63,12.53 c-2.52,1.3-5.11,1.8-7.56,1.8c-1.22,0-2.23-0.07-3.1-0.36C26.39,39.6,25.96,38.52,25.89,38.16z" />
		<!-- a --><path class="st0" d="M64.05,34.92c-1.22-1.8-3.31-2.74-5.47-2.74c-1.58,0-2.52,0.43-2.88,0.72c-0.79,0.58-2.09,2.88-3.02,5.18 c-0.22,0.29-2.16-0.79-2.09-1.44c0.14-1.01,1.22-3.82,1.66-4.25c3.1-2.16,7.63-3.96,9.43-3.96c3.17,0,5.54,1.44,7.13,3.82 c1.22,2.02,1.66,4.54,1.66,7.13c0,3.74-0.29,9.29-0.29,12.17c0,1.51,0.58,2.88,2.74,2.88c1.15,0,1.66-0.07,2.52-0.36 c0.07,0.29-0.07,1.94-0.29,2.16c-1.73,1.87-4.25,2.52-5.9,2.52c-2.02,0-3.17-0.79-3.67-1.87c-0.29-0.43-0.43-1.22-0.58-1.8 c0-0.07-0.22-0.14-0.29-0.07c-3.67,2.3-6.7,3.74-8.57,3.74c-1.37,0-2.81-0.72-3.96-1.8c-1.44-1.58-2.45-3.82-2.45-6.34 c0-1.37,0.94-3.6,1.3-4.1c2.38-1.3,10.87-3.31,13.61-4.68c0.14-0.07,0.43-0.5,0.43-0.72c0.14-0.65,0.07-1.44,0.07-1.94 C65.13,37.73,64.91,36.14,64.05,34.92z M64.7,43.99c-2.67,0.94-7.27,2.38-8.57,3.31c-0.29,0.14-0.72,1.51-0.72,2.3 c0,2.81,1.94,4.9,5.04,4.9c0.94,0,2.52-0.36,3.67-1.15c0.5-0.29,0.72-0.86,0.79-1.66c0.14-1.51,0.14-6.19,0.14-7.42 C65.06,44.21,64.84,43.92,64.7,43.99z" />
		<!-- t --><path class="st0" d="M88.53,32.98c-0.14,0-0.29,0.29-0.29,0.36c-0.07,3.38-0.07,9.72,0,13.25c0,2.88,0.14,4.25,0.43,5.18 c0.65,1.94,2.45,2.81,4.25,2.81c2.02,0,3.02-0.36,4.46-1.22c0.14,0.22-0.07,1.94-0.22,2.23c-1.8,2.23-4.82,3.17-7.13,3.17 c-2.81,0-5.11-1.15-6.34-3.46c-0.94-1.73-1.01-3.6-1.01-8.21c0-4.1,0.07-10.58,0.07-13.46c0-0.22-0.14-0.58-0.43-0.65l-3.89-0.29 c-0.07-0.43,0.36-2.02,0.65-2.38c1.01-0.14,2.81-0.5,3.38-0.79c0.07,0,0.29-0.29,0.29-0.5V22.9c1.15-0.58,3.82-2.38,4.61-3.31 c0.36-0.14,1.08-0.14,1.3-0.07c-0.14,1.22-0.36,4.46-0.36,9.5c0,0.14,0.14,0.43,0.29,0.43c3.46,0,7.71-0.22,8.79-0.36 c-0.22,1.01-0.58,2.88-0.65,3.96C94.94,33.05,91.26,32.98,88.53,32.98z" />
		<!-- r --><path class="st0" d="M123.59,30.02c0.07,0.22,0.07,0.86,0,1.15c-0.14,0.86-1.51,3.67-2.23,4.54c-0.07,0.07-0.5,0.29-0.58,0.29 c-1.37-1.15-3.02-2.23-4.68-2.23c-1.44,0-2.88,1.51-3.82,3.02c-0.22,0.43-0.58,1.51-0.58,2.45c0,4.9,0.07,12.31,0.14,13.75 c0.07,1.22,0.43,1.94,1.51,2.3c1.3,0.36,2.95,0.58,4.54,0.72c0.14,0.36,0.07,1.8-0.29,2.09c-0.86,0-5.54-0.22-8.42-0.22 c-2.23,0-5.9,0.14-7.2,0.22c-0.22-0.29-0.29-1.8,0-2.09c0.86-0.07,2.02-0.29,2.81-0.58c0.72-0.29,1.15-0.72,1.3-2.02 c0.14-1.15,0.22-7.13,0.22-12.1c0-2.66,0-4.82-0.07-5.69c-0.14-1.01-0.72-1.87-3.96-3.02c0-0.36,0.14-1.44,0.36-1.58 c2.59-0.29,6.84-1.51,8.79-2.66c0.14,0,0.36,0.14,0.36,0.29c-0.07,1.01-0.14,4.18-0.14,5.54c0,0.22,0.22,0.22,0.36,0.14 c1.37-1.73,2.88-3.38,4.54-4.54c1.15-0.86,2.3-1.37,3.67-1.37S123.02,29.02,123.59,30.02z" />
		<!-- i --><path class="st0" d="M142.24,58.11c-1.37,0-3.67-0.22-7.34-0.22c-3.02,0-5.83,0.22-7.06,0.22c-0.29-0.22-0.29-1.8,0-2.09 c1.22-0.14,2.23-0.36,3.1-0.65c0.94-0.36,1.15-0.94,1.3-2.59c0.14-1.8,0.14-6.55,0.14-10.51c0-2.81-0.07-5.4-0.07-6.84 c0-0.43-0.07-1.01-0.5-1.51c-0.79-0.79-2.02-1.22-3.46-1.73c-0.22-0.29,0-1.51,0.29-1.73c2.16-0.07,6.55-0.94,9.36-2.09 c0,3.24-0.07,8.21-0.07,12.6c0,3.96,0,8.78,0.07,12.02c0,1.3,0.43,2.09,1.51,2.45c0.94,0.22,1.37,0.36,3.02,0.58 C142.74,56.38,142.53,57.89,142.24,58.11z M136.69,21.67c-0.36,0.22-2.81,0.43-3.24,0.14c-1.08-0.5-1.66-1.51-1.87-2.95 c-0.07-0.43,0-1.73,0.36-2.09c0.65-0.58,2.16-1.3,3.46-1.3c1.15,0,1.94,0.36,2.09,0.58c0.43,0.5,0.72,1.44,0.72,2.09 C138.21,19.51,137.63,20.95,136.69,21.67z" />
		<!-- c --><path class="st0" d="M161.61,58.75c-4.61,0-7.92-1.73-10.3-4.97c-1.8-2.59-2.81-6.05-2.81-9.65c0-5.33,2.45-9.86,7.27-12.74 c3.02-1.87,6.91-2.95,9.14-2.95c2.88,0,4.54,0.5,5.9,1.08c0.94,0.5,1.87,1.15,2.16,1.87c0,0.22-0.07,0.86-0.14,1.15 c-0.43,1.08-1.8,2.67-2.45,2.95c-0.14,0.07-0.58,0.07-0.72,0c-1.51-1.51-4.25-3.82-7.92-3.82c-5.4,0-7.71,4.82-7.71,9.72 c0,3.38,0.86,6.7,2.67,8.86c2.16,2.66,4.82,3.74,8.14,3.74c2.52,0,5.47-0.94,8.21-3.46c0.07,0,0.36,0.22,0.36,0.43 c0,0.58-0.22,1.87-0.36,2.09C169.53,57.39,164.63,58.75,161.61,58.75z" />
		<!-- k --><path class="st0" d="M193.36,29.45c6.05,0,10.87-0.29,13.68-0.65c0.29,0.29,0.29,1.8,0,2.16c-2.81,0.5-4.39,0.94-6.12,2.67 l-7.13,7.27c-0.07,0.07-0.07,0.36,0,0.43c2.02,3.17,8.35,10.8,11.23,13.18c1.73,1.37,2.74,1.44,5.33,1.51 c0.22,0.29,0,1.87-0.29,2.09c-0.94,0.22-4.54,0.14-7.06,0.14c-1.58,0-2.67-0.72-3.24-1.15c-2.38-1.94-6.48-7.99-9.72-11.95 c-0.43-0.58-1.08-1.15-2.52-1.15c0,3.24,0,6.05,0.14,8.86c0,1.73,0.43,2.3,1.8,2.66c0.72,0.14,1.73,0.36,2.95,0.5 c0.22,0.29,0.07,1.8-0.29,2.09c-1.3,0-4.03-0.22-7.2-0.22c-3.96,0-6.05,0.22-7.2,0.22c-0.29-0.22-0.36-1.87,0-2.09 c0.94-0.14,1.8-0.22,2.66-0.5c1.15-0.36,1.51-0.86,1.58-2.38c0.14-2.23,0.14-10.37,0.14-13.9c0-15.84,0-22.03-0.14-23.83 c-0.07-0.94-0.36-1.66-1.22-1.94c-0.72-0.22-2.16-0.36-3.6-0.5c-0.22-0.29-0.14-1.73,0.07-1.87c4.1-0.29,8.42-1.08,10.66-2.02 c0.22,0,0.58,0.58,0.58,0.79c-0.58,1.01-0.72,3.1-0.79,6.41c-0.14,5.76-0.14,14.04-0.14,26.14c1.01-0.22,2.16-0.72,3.38-1.73 c2.59-2.16,6.19-6.41,6.48-7.63c0.07-0.36-0.07-0.86-0.86-1.08c-0.72-0.14-2.23-0.43-3.38-0.5 C192.93,31.1,193.07,29.66,193.36,29.45z" />
	</g>
	<g>
		<!-- W --><path class="st1" d="M225.88,13.32c2.59,0,6.05,0.29,9.65,0.29c4.68-0.07,6.91-0.14,8.64-0.22c0.29,0.14,0.36,1.8,0,2.02 c-1.66,0.36-2.66,0.58-3.6,0.86c-1.15,0.36-1.37,1.3-1.08,2.81c1.44,6.19,5.4,20.31,7.85,28.8c0,0,0.14,0,0.29-0.07 c3.1-8.5,9-25.2,10.94-32.19c1.01,0.14,2.95,0.14,3.82,0c1.73,6.48,8.93,26.71,11.23,32.76c0.07,0.07,0.29,0,0.36-0.07 c1.94-5.98,6.7-21.53,7.99-27.43c0.58-2.45,0.65-4.1-1.51-4.68c-1.15-0.29-2.23-0.5-4.25-0.79c-0.36-0.29-0.29-1.87,0-2.02 c1.73,0,5.4,0.22,8.35,0.22c4.75,0,6.77-0.22,8.28-0.22c0.29,0.22,0.29,1.8,0,2.02c-1.44,0.29-2.38,0.5-3.17,0.79 c-1.73,0.65-2.67,1.58-3.75,4.46c-3.1,8.42-9.5,28.87-12.1,37.66c-0.65,0-3.02,0-3.67,0.07c-1.66-5.98-8.64-26.07-11.3-33.12 c-0.07,0-0.22,0.07-0.29,0.14c-3.24,9-9.14,25.56-11.45,32.91c-0.65-0.07-2.95-0.07-3.67,0.07c-2.16-8.86-7.99-30.46-10.3-37.51 c-1.08-3.17-1.8-4.18-3.67-4.68c-1.22-0.36-2.02-0.5-3.82-0.79C225.45,15.12,225.52,13.53,225.88,13.32z" />
		<!-- e --><path class="st1" d="M315.23,51.41c0.07,0.5-0.22,1.73-0.36,1.94c-3.17,3.6-8.14,5.4-11.45,5.4c-3.74,0-6.62-1.22-8.78-3.46 c-2.95-2.95-4.1-7.34-4.1-11.45c0-6.34,2.66-10.58,6.34-13.03c2.23-1.44,5.47-2.38,7.78-2.38c6.98,0,9.5,6.19,10.08,10.22 c0.07,0.29,0.36,0.58,1.08,0.79c0.07,0.29-0.36,1.51-0.58,1.66c-3.02,0.86-12.82,1.44-18.87,1.58c-0.29,0.07-0.43,0.43-0.43,0.79 c0.14,2.45,1.22,5.47,2.95,7.34c2.16,2.23,4.61,3.17,7.85,3.17c2.88,0,5.54-0.86,8.21-3.02C315.02,51.05,315.16,51.19,315.23,51.41 z M296.08,39.46c0,0.14,0.14,0.5,0.36,0.5c2.3,0.14,10.8-0.14,12.24-0.43c0.14-0.14,0.36-0.36,0.36-0.65 c-0.36-3.6-2.74-7.7-6.62-7.7C298.96,31.18,296.44,34.34,296.08,39.46z" />
		<!-- b --><path class="st1" d="M348.07,32.18c2.45,2.74,3.17,6.62,3.17,9.14c0,6.26-2.59,10.73-6.41,13.46c-3.02,2.3-7.78,3.96-10.66,3.96 c-2.38,0-4.46-0.43-6.41-1.01c-0.79-0.22-1.73-0.36-3.31,0.07c-0.14,0-0.5-0.29-0.5-0.43c0.22-3.67,0.29-7.27,0.29-17.5 c0-8.78-0.07-21.1-0.36-24.12c-0.07-1.22-0.36-1.66-1.51-2.02c-0.79-0.29-2.16-0.5-3.6-0.65c-0.29-0.36-0.22-1.58,0.14-1.87 c3.67-0.22,8.86-1.3,11.3-2.16c0.22,0,0.5,0.72,0.43,0.94c-0.58,0.86-0.86,2.02-0.86,14.11v7.85c0,0.14,0.29,0.22,0.43,0.14 c3.38-2.02,7.42-3.67,9.72-3.67C343.53,28.44,346.27,30.02,348.07,32.18z M330.64,34.13c-0.29,0.22-0.58,0.5-0.72,1.08 c-0.14,1.58-0.14,11.45,0.07,14.4c0.07,2.74,0.58,3.31,1.22,3.96c1.73,1.44,3.96,1.87,5.9,1.87c2.23,0,4.03-0.65,5.62-2.52 c1.58-1.8,2.59-5.18,2.59-8.5c0-4.03-1.01-6.62-2.3-8.5c-2.02-2.59-4.39-3.38-6.99-3.38C334.17,32.54,331.72,33.41,330.64,34.13z" />
		<!-- e --><path class="st1" d="M383.92,51.41c0.07,0.5-0.22,1.73-0.36,1.94c-3.17,3.6-8.14,5.4-11.45,5.4c-3.74,0-6.62-1.22-8.78-3.46 c-2.95-2.95-4.1-7.34-4.1-11.45c0-6.34,2.66-10.58,6.34-13.03c2.23-1.44,5.47-2.38,7.78-2.38c6.98,0,9.5,6.19,10.08,10.22 c0.07,0.29,0.36,0.58,1.08,0.79c0.07,0.29-0.36,1.51-0.58,1.66c-3.02,0.86-12.82,1.44-18.87,1.58c-0.29,0.07-0.43,0.43-0.43,0.79 c0.14,2.45,1.22,5.47,2.95,7.34c2.16,2.23,4.61,3.17,7.85,3.17c2.88,0,5.54-0.86,8.21-3.02C383.71,51.05,383.85,51.19,383.92,51.41 z M364.77,39.46c0,0.14,0.14,0.5,0.36,0.5c2.3,0.14,10.8-0.14,12.24-0.43c0.14-0.14,0.36-0.36,0.36-0.65 c-0.36-3.6-2.74-7.7-6.62-7.7C367.65,31.18,365.13,34.34,364.77,39.46z" />
		<!-- r --><path class="st1" d="M411.28,30.02c0.07,0.22,0.07,0.86,0,1.15c-0.14,0.86-1.51,3.67-2.23,4.54c-0.07,0.07-0.5,0.29-0.58,0.29 c-1.37-1.15-3.02-2.23-4.68-2.23c-1.44,0-2.88,1.51-3.82,3.02c-0.22,0.43-0.58,1.51-0.58,2.45c0,4.9,0.07,12.31,0.14,13.75 c0.07,1.22,0.43,1.94,1.51,2.3c1.3,0.36,2.95,0.58,4.54,0.72c0.14,0.36,0.07,1.8-0.29,2.09c-0.86,0-5.54-0.22-8.42-0.22 c-2.23,0-5.9,0.14-7.2,0.22c-0.22-0.29-0.29-1.8,0-2.09c0.86-0.07,2.02-0.29,2.81-0.58c0.72-0.29,1.15-0.72,1.3-2.02 c0.14-1.15,0.22-7.13,0.22-12.1c0-2.66,0-4.82-0.07-5.69c-0.14-1.01-0.72-1.87-3.96-3.02c0-0.36,0.14-1.44,0.36-1.58 c2.59-0.29,6.84-1.51,8.78-2.66c0.14,0,0.36,0.14,0.36,0.29c-0.07,1.01-0.14,4.18-0.14,5.54c0,0.22,0.22,0.22,0.36,0.14 c1.37-1.73,2.88-3.38,4.54-4.54c1.15-0.86,2.3-1.37,3.67-1.37S410.71,29.02,411.28,30.02z" />
	</g>
</svg>
